PathFileType	4	(X/Y/Z)	Patient4_TMGait_0pt5_02_right_04.trc.trc
DataRate	CameraRate	NumFrames	NumMarkers	Units	OrigDataRate	OrigDataStartFrame	OrigNumFrames
76.923076923077	76.923076923077	4	33	mm	76.923076923077	53	       141
Frame#	Time	Sacral			L.Shoulder			Chest			R.Shoulder			Neck			R.ASIS			L.ASIS			R.Thigh.Superior			R.Thigh.Lateral			R.Thigh.Inferior			R.Patella			L.Thigh.Superior			L.Thigh.Lateral			L.Thigh.Inferior			L.Patella			L.Shank.Superior			L.Shank.Lateral			L.Shank.Inferior			R.Shank.Superior			R.Shank.Lateral			R.Shank.Inferior			R.Heel			R.Midfoot.Superior			R.Midfoot.Lateral			R.Toe			L.Heel			L.Midfoot.Lateral			L.Midfoot.Superior			L.Toe			L.Elbow			L.Wrist			R.Elbow			R.Wrist			
		X1	Y1	Z1	X2	Y2	Z2	X3	Y3	Z3	X4	Y4	Z4	X5	Y5	Z5	X6	Y6	Z6	X7	Y7	Z7	X8	Y8	Z8	X9	Y9	Z9	X10	Y10	Z10	X11	Y11	Z11	X12	Y12	Z12	X13	Y13	Z13	X14	Y14	Z14	X15	Y15	Z15	X16	Y16	Z16	X17	Y17	Z17	X18	Y18	Z18	X19	Y19	Z19	X20	Y20	Z20	X21	Y21	Z21	X22	Y22	Z22	X23	Y23	Z23	X24	Y24	Z24	X25	Y25	Z25	X26	Y26	Z26	X27	Y27	Z27	X28	Y28	Z28	X29	Y29	Z29	X30	Y30	Z30	X31	Y31	Z31	X32	Y32	Z32	X33	Y33	Z33	

53	5.806000000000	556.257588296593	1013.979549251486	534.046734671913	743.389929472683	1444.515225767137	367.819760265065	846.526555659249	1363.689609257938	523.407687585043	769.609545889591	1433.609539528269	702.872575301794	748.974653700081	1497.979377061641	522.038451335396	782.341048973885	942.512311074874	648.612831051372	766.852948332783	966.844279700633	375.068424625225	810.170198614991	739.242200909701	619.103057244070	719.303833418311	635.936442426771	673.842331853918	794.472452616632	579.523223981168	595.589706892228	789.652772577332	495.177061763598	599.103409496888	845.355561327765	781.936534142023	406.078767266149	802.113314554890	655.070396904174	328.884965738280	901.066135934403	593.870827333899	395.657518575797	921.870073087783	513.541857277863	389.285677356814	879.648938501622	439.691141372013	378.464990019797	767.514586230757	346.898662262308	327.055210454193	806.889310552490	222.483039368256	381.716459660387	763.960521198324	407.308759644102	602.636285236510	692.283739442831	300.176223174015	656.753905673347	741.840496160053	208.796492627944	593.272579712407	613.246716286412	42.345214385637	550.558445306652	784.008190479107	97.653556480865	592.043236205077	694.817260046308	35.962198700031	627.635373795441	902.681334324256	46.435081041340	621.452981250976	659.866759993429	82.264270497766	419.201649903860	726.443572028860	74.671519422881	333.666751873562	819.451795596882	122.660246707319	355.130203539895	934.260667356202	57.850739210489	313.074794706102	672.474704689530	1100.186589937021	240.713561116659	763.266233879552	854.329720564573	218.429508005935	800.745135631544	1089.783004787401	825.168582008644	1002.429378148670	927.289225776766	804.098921419917	
54	5.819000000000	554.557395937397	1014.411341872739	534.831083534683	741.998775334183	1444.379891242265	367.969304780510	845.828487505686	1363.243751925522	522.915713850348	770.146482952991	1433.321647264018	702.846575813556	748.478001924210	1497.756588194663	522.182797112199	781.001334778309	942.157217258181	648.341050268875	764.409914822073	966.751733155787	374.876026389400	807.252669703788	738.592990650389	618.481325450974	716.121393658576	635.752426809112	673.852421094994	790.433301436091	578.898250430761	595.187490066022	785.145454673336	494.711449601944	598.786558300710	842.678828623078	782.247320726784	406.594241509529	800.604321239181	655.638715672149	328.532431933441	898.548268303488	594.595414811869	396.824385321351	920.990397370922	516.138690630916	390.050170842936	882.357960610360	441.985494238915	378.225150687238	776.223908714962	343.366074670242	325.210054851112	822.021717894699	220.956645785647	380.021219739411	759.019607147914	406.916674616687	602.321400865823	687.120223696635	300.072140565161	656.703050765808	735.992601483118	208.484474587023	593.001675119946	606.703938201380	42.310760242225	550.542866353064	777.417676591498	97.569726028340	591.979176530635	688.240761566004	35.957801538773	627.620681740577	896.116951401471	46.324532445562	621.502631734360	682.717606333494	72.704622110806	415.753712800988	750.727058594453	68.659323465147	331.044917137156	840.737456863529	121.637804525487	353.531981478088	959.416107372750	63.076049899344	312.999052048532	667.271954954065	1101.106047250628	240.647268707593	750.854487408276	853.006600230668	215.930859290323	804.585510492553	1090.423428139392	825.650852016555	1013.603936221906	938.589486212351	801.197349352614	
55	5.832000000000	552.898483453789	1014.807639317934	535.510689990267	740.739029095404	1444.207314886103	367.972585443548	845.175001163254	1362.747014273151	522.322389828184	770.641214969623	1432.966803617743	702.687317764223	748.026732083348	1497.490597703745	522.187220576631	779.725615810400	941.811837171966	647.976045953180	762.024983549018	966.557933720142	374.572036672086	804.462874020583	737.938484919461	617.900552681789	713.000409028451	635.555999991606	673.822313097921	786.470738277753	578.263682738647	594.787408040353	780.692256914106	494.212993694866	598.441560564967	839.788988588070	782.300966945009	406.972442093395	798.746528426155	656.059481408281	327.940855081157	895.716010216279	595.059221972641	397.622362350155	919.689239959339	518.524069034321	390.516973221244	884.609175466758	444.303187044565	377.882380267452	784.799005793475	340.192034234825	323.344885747830	836.750812150421	220.201022056017	378.582200279984	754.130468546760	406.508199542779	601.999208453839	681.991824062506	299.964713754364	656.661144863847	730.141390779663	208.154013179067	592.729735111588	600.152670801789	42.286449649699	550.530923513087	770.806603898621	97.481125015927	591.905820769789	681.659291348032	35.948614767236	627.607627862207	889.550255285434	46.209726365248	621.547050527519	705.390871173170	64.589005073741	412.671770943974	774.843755235946	63.830279882122	328.956428925035	861.635644214995	121.533309199228	352.444193179814	983.822207084290	69.089198899861	313.885706667365	662.181992461293	1102.028047261908	240.487838428924	738.913795460176	852.021661955020	213.676522096143	807.960596516584	1090.852825606072	825.614441842333	1023.959120653782	950.551060530226	797.599553934053	
56	5.845000000000	551.302456284705	1015.163545374157	536.089065996785	739.612162371333	1444.004511435206	367.825092469456	844.560947179620	1362.212964048534	521.632221127522	771.072115272742	1432.562827554606	702.388728337937	747.616109460180	1497.193487247776	522.044346523763	778.517797371964	941.484161048418	647.531661529186	759.712922629500	966.277816037741	374.165164649823	801.800785566564	737.284535965746	617.363389168597	709.932809928372	635.356787248174	673.749677270982	782.583276061793	577.623841819570	594.399985759534	776.280006674572	493.680789691465	598.075358051502	836.750987363582	782.142564981160	407.176163514879	796.604418080199	656.361113067201	327.106200111813	892.710074037120	595.308100806622	397.961549171014	918.060128633217	520.696929093902	390.638149843342	886.442063809944	446.633835024020	377.415737266573	793.133838717723	337.441595344941	321.490825225819	850.885126923612	220.214842394218	377.394654207567	749.285671732387	406.088139210760	601.676780126722	676.882335965012	299.862262725511	656.623055948232	724.283829123978	207.815575406473	592.465224096997	593.592740804705	42.271800686894	550.522696096968	764.181462992573	97.391633015329	591.829833262486	675.074812698394	35.936015189253	627.598957155883	882.982550339966	46.095058989422	621.587520554988	727.508285251359	58.025461549056	409.999599159341	798.422557773832	60.194925712008	327.431942247393	881.866071063188	122.288654611103	351.853502265830	1007.172344907635	75.690775854612	315.711840600597	657.217501018933	1102.954916852805	240.230214336048	727.501736079594	851.336877007108	211.678588944546	810.956944015365	1091.075385986552	825.035532462826	1033.446500621334	963.107357607321	793.317502269037	
